<mxfile host="app.diagrams.net" modified="2023-08-09T07:52:27.133Z" agent="Mozilla/5.0 (Windows NT 10.0; Win64; x64) AppleWebKit/537.36 (KHTML, like Gecko) Chrome/115.0.0.0 Safari/537.36" etag="rbV0mgmLEI-qS0XO9Jl6" version="21.6.7" type="device">
  <diagram name="Page-1" id="ipEtqs-seNmxhGsihOQR">
    <mxGraphModel dx="3950" dy="755" grid="1" gridSize="10" guides="1" tooltips="1" connect="1" arrows="1" fold="1" page="1" pageScale="1" pageWidth="850" pageHeight="1100" math="0" shadow="0">
      <root>
        <mxCell id="0" />
        <mxCell id="1" parent="0" />
        <mxCell id="-GD-XBdtOwycMC8zsHy4-9" style="edgeStyle=orthogonalEdgeStyle;rounded=0;orthogonalLoop=1;jettySize=auto;html=1;exitX=0.5;exitY=1;exitDx=0;exitDy=0;entryX=0.5;entryY=0;entryDx=0;entryDy=0;" parent="1" source="-GD-XBdtOwycMC8zsHy4-1" target="-GD-XBdtOwycMC8zsHy4-7" edge="1">
          <mxGeometry relative="1" as="geometry" />
        </mxCell>
        <mxCell id="-GD-XBdtOwycMC8zsHy4-1" value="update" style="rounded=1;whiteSpace=wrap;html=1;strokeColor=#000000;" parent="1" vertex="1">
          <mxGeometry x="340" y="240" width="120" height="60" as="geometry" />
        </mxCell>
        <mxCell id="-GD-XBdtOwycMC8zsHy4-3" style="edgeStyle=orthogonalEdgeStyle;rounded=0;orthogonalLoop=1;jettySize=auto;html=1;" parent="1" source="-GD-XBdtOwycMC8zsHy4-2" target="-GD-XBdtOwycMC8zsHy4-1" edge="1">
          <mxGeometry relative="1" as="geometry" />
        </mxCell>
        <mxCell id="-GD-XBdtOwycMC8zsHy4-2" value="@data&amp;lt;&amp;lt; row" style="rounded=1;whiteSpace=wrap;html=1;" parent="1" vertex="1">
          <mxGeometry x="330" y="110" width="120" height="60" as="geometry" />
        </mxCell>
        <mxCell id="-GD-XBdtOwycMC8zsHy4-5" value="" style="shape=stencil(lVnZchw3DPyafUXxAo9nx/kPV1mOtqJILlnO8fcBsyE9bM62ym97AEMSBLobmEv88O3x09eHS3Df3l5ffn/46/r57fESf7mEcH1+fHi9vtmnS/x4iR++vLw+/Pb68v358+3710/dsn/64+XP/oS/b361SS3dK7h/br84afm/H3692T9dnw/2zUtuYO8csU/S/1vscyL2KkkX+8ifnyWt+8mildgXiXmx904q21AVvx7AqxTuUNYVgpfAjtAkutWhSGArNCnrlmIUDdShrZccmySyJe/mrQ6PlKTyQxS/OjTJnjqE1UGjNLZClbTGVQt3KKLrCtmLFppLkBs58RVU3BrXbFuKxCFKSotD8eJYlPyolumQxJHcsHrOdXXI0piDRWk9dGmjxM8dVMK6Qg3jl3OHMDJnOiQp5B6qJR+sUMQTUCr293rTFob/YeTcIWIFWaBZBRUnfj2DXWUkUcqWS+vF9WQhW8oB09vSUcnFaZUMWypSSfKpRT2uDlUquTh1I5mng6UGiVIy3FrB+wAk5x6WzQ2XYOmaPIJl3xM5dTQ43lZg6Rot7A3DxIo6JskZHRgHxYBw3EmGHDpO3DpcdSYVFIxS1oKwZMqkgoxxHDgY3jOHtN1DoEgWAgqHZjVFCqILEYCNOnDhnLTaKLDpoNJIuvotXWukFWTMD4xSPUUyH4e2OIIr21LAizNsUxIl75Goi9KirkPeTftAC65gNRgUFvL8PJB6UiKvHkVgNeSs5MAJ5ZhxdCYIE0dlHUQAe37AeOrUc+cXIGFTJYx6ZvQO9owX3KCZaW/MQjLIYXxUBxPdscfzTsV+z36tGZNtjpSAwxpTjhMO80095X4/5NC0dzQf/CDVgz0j8nDyfGXAiP2I7Z+hVhjZeLBnmjOi5FRev1v+66Tce88He6X5ELZ8zu/YJ4f2jaE6apBeXwyjx78He6X5tj+f5z9QgE69cK8eG8aTyWurL6hfjm8OidvqkeOP3/InUvsE9hZhGs8K+WCIxwhMYkH7xBjy5PmJ4sPP2Sfs3nv+U/4CFW75w4RTlgJ858eN3OFf6KtzpNKvbXyndKDjHRaMETZLCJMoARTH5MB7IkjBgVOGT5tG0dHgnTvkoZEOqokF1VcJa9aZLvMMpR32Kab8PKMNj2cwbUlxMWKfYuqVrqCjDg9dsiOZ2lNvPbQJajai6VoReljHucbhMNGaAirO4hh0HdoOpg6s1wK6NIdCwmrdXNn6cJbe1i9C22EOjQnSDcH6TJK1sGmbJWQqMa2tBg4xBzaMM4irW/vHQNs4BoZAdmiGMiaKQZY2TlM54Liv2d3zAQoIzeZplHJD5G6OKmtDIei1rB4YzJSMbXhvMMkZDFQAWw0E2ASyhlHBB5hh9VCtDYdxXx3peO5gZ1hXMGxlBWQx0VWQ9IaRTdgdTr768IyNs7dD50LBuG2EkmcYzh0SDkWNdFkTa9kPrKuNjl37eAVkgI4hz73hdASdF/iLkYLIl3hj3WdK66H7CJ/c9O4QGx2H9C2tIGDwzJRAP/R6BqMYNovrYV0rzvoHprabIu36Qtu1poitJlfYWMqSDwglU71n2e3h3vjrI7clBn+PYiCX0Z4BQENuUBpRs1cQ0Bxg2iboqSqp23ug9N5+gD0TFZN1mwpG2g/u9ry/7vsJYM+wqJ93zR/P53UNZZ6n/Uud4/Af9iyff/YF8Pv29uHH2+Yv16en28vq4//4dtp+ur3Zjh//BQ==);lineShape=1;" parent="1" vertex="1">
          <mxGeometry x="316.8907493873828" y="272.00075787474566" width="179.71803435337733" height="79.13681273768725" as="geometry" />
        </mxCell>
        <mxCell id="-GD-XBdtOwycMC8zsHy4-6" value="" style="shape=stencil(rVbLbttADPwaXYl9c/ecpv8RIE4t1LUDx22Tvy9VYVWRlgYt0Ju85kh8zMxyiA9vx6fXwxDc2+16+Xr4OT7fjkP8NIQwno+H63iTpyE+DvHh5XI9fLlevp+f59+vT1Pk9PTt8mN6w/uMa44cT6jgPuaT0Kj43yefZ8BpPK8AnClnDajEbR+QmThoAFOo+4Dkic0XEvxCdBS9AsQAAaFQSgqQmFoBgEDJKUBliqCG4ClXBWieStoHeOm6nkPLFEFKvlA1gEo+A0CkZFJqfTKbgEY12/jm9uNLz3eVUAE9ir2DS3whD+I9Bc2jFqiADjnyZmaVMsjf9fYt8Yk86I+nqONZ+oNoainBhTKgRKGi62XJJ4J8XP97AURyQMrCCCM0AUTQIc/kvU2poZHdcYi5n+zppugmVTkBRU/K1F2qmRqYmnyhGdo5Ckj7jpIuuiUKqK1SovkCd6psAxKVO6VBgCenpead+DiYHG9oPwDuSYXNluCRfVHV1GsRTsFZ7VTRDhjzUt1qypn/X/ydv+fc3WOnn4amcglC5dRunYsQYLy8ztDa9Qy355WtOWI+FPEKzSBRPvAusSpDCFEZ6Kdoqup8xOvQXROtWRf8fqlXE652SWzHMzkjAGLAN7m6st4QRHMVOJ3oyQISnNhKsQuCob9P1682Ir+c7AGC2e1Cv4P2qjb+LmNGNGrLVFe7HbpyxDqz5l3Al7Lc8fFuP0Wb1z8vtH8BkIc/+/PLeDrN6/f6f7tvy9G8q8fHXw==);lineShape=1;" parent="1" vertex="1">
          <mxGeometry x="313.1281106813708" y="312.73924694315247" width="23.077173345560368" height="19.155886303592524" as="geometry" />
        </mxCell>
        <mxCell id="-GD-XBdtOwycMC8zsHy4-7" value="@data.each draw" style="rounded=1;whiteSpace=wrap;html=1;" parent="1" vertex="1">
          <mxGeometry x="346.75" y="390" width="120" height="60" as="geometry" />
        </mxCell>
        <mxCell id="-GD-XBdtOwycMC8zsHy4-10" value="Infinitive" style="text;html=1;strokeColor=none;fillColor=none;align=center;verticalAlign=middle;whiteSpace=wrap;rounded=0;" parent="1" vertex="1">
          <mxGeometry x="460" y="450" width="60" height="30" as="geometry" />
        </mxCell>
        <mxCell id="-GD-XBdtOwycMC8zsHy4-13" style="edgeStyle=orthogonalEdgeStyle;rounded=0;orthogonalLoop=1;jettySize=auto;html=1;exitX=0.5;exitY=1;exitDx=0;exitDy=0;entryX=0.5;entryY=0;entryDx=0;entryDy=0;" parent="1" source="-GD-XBdtOwycMC8zsHy4-11" target="-GD-XBdtOwycMC8zsHy4-12" edge="1">
          <mxGeometry relative="1" as="geometry" />
        </mxCell>
        <mxCell id="-GD-XBdtOwycMC8zsHy4-11" value="TAB" style="rounded=1;whiteSpace=wrap;html=1;" parent="1" vertex="1">
          <mxGeometry x="-340" y="90" width="120" height="60" as="geometry" />
        </mxCell>
        <mxCell id="-GD-XBdtOwycMC8zsHy4-12" value="row&amp;lt;&amp;lt; data" style="rounded=1;whiteSpace=wrap;html=1;" parent="1" vertex="1">
          <mxGeometry x="-350" y="190" width="120" height="60" as="geometry" />
        </mxCell>
        <mxCell id="-GD-XBdtOwycMC8zsHy4-15" value="@data&amp;lt;&amp;lt; row" style="rounded=1;whiteSpace=wrap;html=1;" parent="1" vertex="1">
          <mxGeometry x="-230" y="370" width="120" height="60" as="geometry" />
        </mxCell>
        <mxCell id="7APg-jmRIL8o15tMqE8I-5" style="edgeStyle=orthogonalEdgeStyle;rounded=0;orthogonalLoop=1;jettySize=auto;html=1;entryX=0.5;entryY=0;entryDx=0;entryDy=0;" parent="1" source="7APg-jmRIL8o15tMqE8I-1" target="7APg-jmRIL8o15tMqE8I-4" edge="1">
          <mxGeometry relative="1" as="geometry" />
        </mxCell>
        <mxCell id="7APg-jmRIL8o15tMqE8I-1" value="@data" style="rounded=1;whiteSpace=wrap;html=1;" parent="1" vertex="1">
          <mxGeometry x="-680" y="240" width="120" height="60" as="geometry" />
        </mxCell>
        <mxCell id="7APg-jmRIL8o15tMqE8I-3" style="edgeStyle=orthogonalEdgeStyle;rounded=0;orthogonalLoop=1;jettySize=auto;html=1;" parent="1" source="7APg-jmRIL8o15tMqE8I-2" target="7APg-jmRIL8o15tMqE8I-1" edge="1">
          <mxGeometry relative="1" as="geometry" />
        </mxCell>
        <mxCell id="7APg-jmRIL8o15tMqE8I-2" value="SQL table" style="rounded=1;whiteSpace=wrap;html=1;" parent="1" vertex="1">
          <mxGeometry x="-680" y="30" width="120" height="60" as="geometry" />
        </mxCell>
        <mxCell id="7APg-jmRIL8o15tMqE8I-7" style="edgeStyle=orthogonalEdgeStyle;rounded=0;orthogonalLoop=1;jettySize=auto;html=1;" parent="1" source="7APg-jmRIL8o15tMqE8I-4" target="7APg-jmRIL8o15tMqE8I-6" edge="1">
          <mxGeometry relative="1" as="geometry" />
        </mxCell>
        <mxCell id="7APg-jmRIL8o15tMqE8I-4" value="sort" style="rounded=1;whiteSpace=wrap;html=1;" parent="1" vertex="1">
          <mxGeometry x="-680" y="360" width="120" height="60" as="geometry" />
        </mxCell>
        <mxCell id="Ly13JIZirX6g2R74oaRn-2" style="edgeStyle=orthogonalEdgeStyle;rounded=0;orthogonalLoop=1;jettySize=auto;html=1;exitX=0.5;exitY=1;exitDx=0;exitDy=0;entryX=0.5;entryY=0;entryDx=0;entryDy=0;" parent="1" source="7APg-jmRIL8o15tMqE8I-6" target="Ly13JIZirX6g2R74oaRn-1" edge="1">
          <mxGeometry relative="1" as="geometry" />
        </mxCell>
        <mxCell id="7APg-jmRIL8o15tMqE8I-6" value="draw" style="rounded=1;whiteSpace=wrap;html=1;" parent="1" vertex="1">
          <mxGeometry x="-680" y="470" width="120" height="60" as="geometry" />
        </mxCell>
        <mxCell id="t3ePeWK-zsrY3NDj7fG2-4" style="edgeStyle=orthogonalEdgeStyle;rounded=0;orthogonalLoop=1;jettySize=auto;html=1;entryX=0.5;entryY=0;entryDx=0;entryDy=0;" parent="1" source="t3ePeWK-zsrY3NDj7fG2-1" target="t3ePeWK-zsrY3NDj7fG2-2" edge="1">
          <mxGeometry relative="1" as="geometry" />
        </mxCell>
        <mxCell id="t3ePeWK-zsrY3NDj7fG2-5" style="edgeStyle=orthogonalEdgeStyle;rounded=0;orthogonalLoop=1;jettySize=auto;html=1;entryX=0.5;entryY=0;entryDx=0;entryDy=0;" parent="1" source="t3ePeWK-zsrY3NDj7fG2-1" target="t3ePeWK-zsrY3NDj7fG2-3" edge="1">
          <mxGeometry relative="1" as="geometry">
            <mxPoint x="240" y="755" as="targetPoint" />
            <Array as="points">
              <mxPoint x="200" y="693" />
              <mxPoint x="320" y="693" />
              <mxPoint x="320" y="755" />
            </Array>
          </mxGeometry>
        </mxCell>
        <mxCell id="t3ePeWK-zsrY3NDj7fG2-1" value="graph" style="rounded=1;whiteSpace=wrap;html=1;" parent="1" vertex="1">
          <mxGeometry x="140" y="570" width="120" height="60" as="geometry" />
        </mxCell>
        <mxCell id="t3ePeWK-zsrY3NDj7fG2-2" value="each day" style="rounded=1;whiteSpace=wrap;html=1;" parent="1" vertex="1">
          <mxGeometry x="20" y="755" width="120" height="60" as="geometry" />
        </mxCell>
        <mxCell id="t3ePeWK-zsrY3NDj7fG2-3" value="every progress" style="rounded=1;whiteSpace=wrap;html=1;" parent="1" vertex="1">
          <mxGeometry x="260" y="755" width="120" height="60" as="geometry" />
        </mxCell>
        <mxCell id="t3ePeWK-zsrY3NDj7fG2-9" style="edgeStyle=orthogonalEdgeStyle;rounded=0;orthogonalLoop=1;jettySize=auto;html=1;exitX=0.5;exitY=1;exitDx=0;exitDy=0;entryX=0.5;entryY=0;entryDx=0;entryDy=0;" parent="1" source="t3ePeWK-zsrY3NDj7fG2-6" target="t3ePeWK-zsrY3NDj7fG2-7" edge="1">
          <mxGeometry relative="1" as="geometry" />
        </mxCell>
        <mxCell id="t3ePeWK-zsrY3NDj7fG2-10" style="edgeStyle=orthogonalEdgeStyle;rounded=0;orthogonalLoop=1;jettySize=auto;html=1;exitX=0.5;exitY=1;exitDx=0;exitDy=0;entryX=0.5;entryY=0;entryDx=0;entryDy=0;" parent="1" source="t3ePeWK-zsrY3NDj7fG2-11" target="t3ePeWK-zsrY3NDj7fG2-8" edge="1">
          <mxGeometry relative="1" as="geometry">
            <Array as="points">
              <mxPoint x="-960" y="150" />
              <mxPoint x="-850" y="150" />
            </Array>
          </mxGeometry>
        </mxCell>
        <mxCell id="t3ePeWK-zsrY3NDj7fG2-6" value="array" style="rounded=1;whiteSpace=wrap;html=1;" parent="1" vertex="1">
          <mxGeometry x="-1020" width="120" height="60" as="geometry" />
        </mxCell>
        <mxCell id="t3ePeWK-zsrY3NDj7fG2-14" style="edgeStyle=orthogonalEdgeStyle;rounded=0;orthogonalLoop=1;jettySize=auto;html=1;exitX=0.5;exitY=1;exitDx=0;exitDy=0;" parent="1" source="t3ePeWK-zsrY3NDj7fG2-7" edge="1">
          <mxGeometry relative="1" as="geometry">
            <mxPoint x="-1080.1428571428569" y="350" as="targetPoint" />
          </mxGeometry>
        </mxCell>
        <mxCell id="t3ePeWK-zsrY3NDj7fG2-7" value="first half" style="rounded=1;whiteSpace=wrap;html=1;" parent="1" vertex="1">
          <mxGeometry x="-1140" y="240" width="120" height="60" as="geometry" />
        </mxCell>
        <mxCell id="t3ePeWK-zsrY3NDj7fG2-16" style="edgeStyle=orthogonalEdgeStyle;rounded=0;orthogonalLoop=1;jettySize=auto;html=1;exitX=0.5;exitY=1;exitDx=0;exitDy=0;" parent="1" source="t3ePeWK-zsrY3NDj7fG2-8" edge="1">
          <mxGeometry relative="1" as="geometry">
            <mxPoint x="-850.1428571428569" y="350" as="targetPoint" />
          </mxGeometry>
        </mxCell>
        <mxCell id="t3ePeWK-zsrY3NDj7fG2-8" value="second half" style="rounded=1;whiteSpace=wrap;html=1;" parent="1" vertex="1">
          <mxGeometry x="-910" y="240" width="120" height="60" as="geometry" />
        </mxCell>
        <mxCell id="t3ePeWK-zsrY3NDj7fG2-12" value="" style="edgeStyle=orthogonalEdgeStyle;rounded=0;orthogonalLoop=1;jettySize=auto;html=1;exitX=0.5;exitY=1;exitDx=0;exitDy=0;entryX=0.5;entryY=0;entryDx=0;entryDy=0;" parent="1" source="t3ePeWK-zsrY3NDj7fG2-6" target="t3ePeWK-zsrY3NDj7fG2-11" edge="1">
          <mxGeometry relative="1" as="geometry">
            <mxPoint x="-960" y="60" as="sourcePoint" />
            <mxPoint x="-850" y="240" as="targetPoint" />
          </mxGeometry>
        </mxCell>
        <mxCell id="t3ePeWK-zsrY3NDj7fG2-11" value="sum every array in the array" style="rounded=1;whiteSpace=wrap;html=1;" parent="1" vertex="1">
          <mxGeometry x="-1020" y="120" width="120" height="60" as="geometry" />
        </mxCell>
        <mxCell id="t3ePeWK-zsrY3NDj7fG2-13" value="compare" style="rounded=1;whiteSpace=wrap;html=1;" parent="1" vertex="1">
          <mxGeometry x="-1140" y="351" width="380" height="60" as="geometry" />
        </mxCell>
        <mxCell id="1MAdGLyUHo4PE4qZImkC-1" value="RANK&amp;nbsp;" style="text;html=1;strokeColor=none;fillColor=none;align=center;verticalAlign=middle;whiteSpace=wrap;rounded=0;" parent="1" vertex="1">
          <mxGeometry x="-1480" y="160" width="60" height="30" as="geometry" />
        </mxCell>
        <mxCell id="UBW2b1I-2_OCYuIg1DvJ-3" style="edgeStyle=orthogonalEdgeStyle;rounded=0;orthogonalLoop=1;jettySize=auto;html=1;exitX=0.5;exitY=1;exitDx=0;exitDy=0;" edge="1" parent="1" source="1MAdGLyUHo4PE4qZImkC-2">
          <mxGeometry relative="1" as="geometry">
            <mxPoint x="-1490" y="350" as="targetPoint" />
          </mxGeometry>
        </mxCell>
        <mxCell id="1MAdGLyUHo4PE4qZImkC-2" value="SQL table" style="rounded=1;whiteSpace=wrap;html=1;" parent="1" vertex="1">
          <mxGeometry x="-1550" y="220" width="120" height="60" as="geometry" />
        </mxCell>
        <mxCell id="Ly13JIZirX6g2R74oaRn-4" style="edgeStyle=orthogonalEdgeStyle;rounded=0;orthogonalLoop=1;jettySize=auto;html=1;exitX=0.5;exitY=1;exitDx=0;exitDy=0;entryX=0.5;entryY=0;entryDx=0;entryDy=0;" parent="1" source="Ly13JIZirX6g2R74oaRn-1" target="Ly13JIZirX6g2R74oaRn-3" edge="1">
          <mxGeometry relative="1" as="geometry" />
        </mxCell>
        <mxCell id="Ly13JIZirX6g2R74oaRn-1" value="ENTER" style="rounded=1;whiteSpace=wrap;html=1;" parent="1" vertex="1">
          <mxGeometry x="-680" y="590" width="120" height="60" as="geometry" />
        </mxCell>
        <mxCell id="Ly13JIZirX6g2R74oaRn-6" style="edgeStyle=orthogonalEdgeStyle;rounded=0;orthogonalLoop=1;jettySize=auto;html=1;exitX=0.5;exitY=1;exitDx=0;exitDy=0;entryX=0.5;entryY=0;entryDx=0;entryDy=0;" parent="1" source="Ly13JIZirX6g2R74oaRn-3" target="Ly13JIZirX6g2R74oaRn-5" edge="1">
          <mxGeometry relative="1" as="geometry" />
        </mxCell>
        <mxCell id="Ly13JIZirX6g2R74oaRn-3" value="self.text&amp;nbsp;" style="rounded=1;whiteSpace=wrap;html=1;" parent="1" vertex="1">
          <mxGeometry x="-680" y="710" width="120" height="60" as="geometry" />
        </mxCell>
        <mxCell id="Ly13JIZirX6g2R74oaRn-7" style="edgeStyle=orthogonalEdgeStyle;rounded=0;orthogonalLoop=1;jettySize=auto;html=1;exitX=0.5;exitY=1;exitDx=0;exitDy=0;" parent="1" source="Ly13JIZirX6g2R74oaRn-5" edge="1">
          <mxGeometry relative="1" as="geometry">
            <mxPoint x="-620" y="950" as="targetPoint" />
          </mxGeometry>
        </mxCell>
        <mxCell id="Ly13JIZirX6g2R74oaRn-5" value="DataManager.get_data" style="rounded=1;whiteSpace=wrap;html=1;" parent="1" vertex="1">
          <mxGeometry x="-680" y="820" width="120" height="60" as="geometry" />
        </mxCell>
        <mxCell id="Ly13JIZirX6g2R74oaRn-8" value="Communicate between TextInput gosu window and Home gosu window" style="text;html=1;strokeColor=none;fillColor=none;align=center;verticalAlign=middle;whiteSpace=wrap;rounded=0;" parent="1" vertex="1">
          <mxGeometry x="-530" y="835" width="180" height="30" as="geometry" />
        </mxCell>
        <mxCell id="Ly13JIZirX6g2R74oaRn-11" style="edgeStyle=orthogonalEdgeStyle;rounded=0;orthogonalLoop=1;jettySize=auto;html=1;" parent="1" source="Ly13JIZirX6g2R74oaRn-9" edge="1">
          <mxGeometry relative="1" as="geometry">
            <mxPoint x="-490" y="140" as="targetPoint" />
          </mxGeometry>
        </mxCell>
        <mxCell id="Ly13JIZirX6g2R74oaRn-9" value="@data" style="rounded=1;whiteSpace=wrap;html=1;" parent="1" vertex="1">
          <mxGeometry x="-680" y="950" width="120" height="60" as="geometry" />
        </mxCell>
        <mxCell id="Ly13JIZirX6g2R74oaRn-14" value="" style="endArrow=classic;html=1;rounded=0;entryX=1;entryY=0.5;entryDx=0;entryDy=0;" parent="1" target="7APg-jmRIL8o15tMqE8I-2" edge="1">
          <mxGeometry width="50" height="50" relative="1" as="geometry">
            <mxPoint x="-490" y="140" as="sourcePoint" />
            <mxPoint x="-230" y="130" as="targetPoint" />
          </mxGeometry>
        </mxCell>
        <mxCell id="UBW2b1I-2_OCYuIg1DvJ-4" style="edgeStyle=orthogonalEdgeStyle;rounded=0;orthogonalLoop=1;jettySize=auto;html=1;exitX=0.5;exitY=1;exitDx=0;exitDy=0;entryX=0.5;entryY=0;entryDx=0;entryDy=0;" edge="1" parent="1" source="UBW2b1I-2_OCYuIg1DvJ-1" target="UBW2b1I-2_OCYuIg1DvJ-2">
          <mxGeometry relative="1" as="geometry" />
        </mxCell>
        <mxCell id="UBW2b1I-2_OCYuIg1DvJ-1" value="@users" style="rounded=1;whiteSpace=wrap;html=1;" vertex="1" parent="1">
          <mxGeometry x="-1550" y="351.14" width="120" height="60" as="geometry" />
        </mxCell>
        <mxCell id="UBW2b1I-2_OCYuIg1DvJ-2" value="draw_text" style="rounded=1;whiteSpace=wrap;html=1;" vertex="1" parent="1">
          <mxGeometry x="-1550" y="490" width="120" height="60" as="geometry" />
        </mxCell>
        <mxCell id="UBW2b1I-2_OCYuIg1DvJ-5" value="selectionget" style="rounded=1;whiteSpace=wrap;html=1;" vertex="1" parent="1">
          <mxGeometry x="-680" y="130" width="120" height="60" as="geometry" />
        </mxCell>
        <mxCell id="UBW2b1I-2_OCYuIg1DvJ-7" value="array" style="rounded=1;whiteSpace=wrap;html=1;" vertex="1" parent="1">
          <mxGeometry x="-1880" y="160" width="120" height="60" as="geometry" />
        </mxCell>
        <mxCell id="UBW2b1I-2_OCYuIg1DvJ-10" style="edgeStyle=orthogonalEdgeStyle;rounded=0;orthogonalLoop=1;jettySize=auto;html=1;exitX=0.5;exitY=1;exitDx=0;exitDy=0;" edge="1" parent="1" source="UBW2b1I-2_OCYuIg1DvJ-8" target="UBW2b1I-2_OCYuIg1DvJ-9">
          <mxGeometry relative="1" as="geometry" />
        </mxCell>
        <mxCell id="UBW2b1I-2_OCYuIg1DvJ-8" value="each" style="rounded=1;whiteSpace=wrap;html=1;" vertex="1" parent="1">
          <mxGeometry x="-1880" y="280" width="120" height="60" as="geometry" />
        </mxCell>
        <mxCell id="UBW2b1I-2_OCYuIg1DvJ-11" style="edgeStyle=orthogonalEdgeStyle;rounded=0;orthogonalLoop=1;jettySize=auto;html=1;exitX=0;exitY=0.5;exitDx=0;exitDy=0;" edge="1" parent="1" source="UBW2b1I-2_OCYuIg1DvJ-9">
          <mxGeometry relative="1" as="geometry">
            <mxPoint x="-1950" y="430.4545454545454" as="targetPoint" />
          </mxGeometry>
        </mxCell>
        <mxCell id="UBW2b1I-2_OCYuIg1DvJ-16" style="edgeStyle=orthogonalEdgeStyle;rounded=0;orthogonalLoop=1;jettySize=auto;html=1;exitX=0.5;exitY=1;exitDx=0;exitDy=0;" edge="1" parent="1" source="UBW2b1I-2_OCYuIg1DvJ-9">
          <mxGeometry relative="1" as="geometry">
            <mxPoint x="-1819.5454545454547" y="560" as="targetPoint" />
          </mxGeometry>
        </mxCell>
        <mxCell id="UBW2b1I-2_OCYuIg1DvJ-9" value="if empty" style="rounded=1;whiteSpace=wrap;html=1;" vertex="1" parent="1">
          <mxGeometry x="-1880" y="400" width="120" height="60" as="geometry" />
        </mxCell>
        <mxCell id="UBW2b1I-2_OCYuIg1DvJ-13" style="edgeStyle=orthogonalEdgeStyle;rounded=0;orthogonalLoop=1;jettySize=auto;html=1;entryX=0;entryY=0.5;entryDx=0;entryDy=0;" edge="1" parent="1" source="UBW2b1I-2_OCYuIg1DvJ-12" target="UBW2b1I-2_OCYuIg1DvJ-8">
          <mxGeometry relative="1" as="geometry">
            <mxPoint x="-1990" y="300" as="targetPoint" />
            <Array as="points">
              <mxPoint x="-2000" y="300" />
              <mxPoint x="-1880" y="300" />
            </Array>
          </mxGeometry>
        </mxCell>
        <mxCell id="UBW2b1I-2_OCYuIg1DvJ-12" value="next" style="rounded=1;whiteSpace=wrap;html=1;" vertex="1" parent="1">
          <mxGeometry x="-2060" y="410" width="120" height="50" as="geometry" />
        </mxCell>
        <mxCell id="UBW2b1I-2_OCYuIg1DvJ-14" value="yes" style="text;html=1;strokeColor=none;fillColor=none;align=center;verticalAlign=middle;whiteSpace=wrap;rounded=0;" vertex="1" parent="1">
          <mxGeometry x="-1940" y="400" width="60" height="30" as="geometry" />
        </mxCell>
        <mxCell id="UBW2b1I-2_OCYuIg1DvJ-15" value="no" style="text;html=1;strokeColor=none;fillColor=none;align=center;verticalAlign=middle;whiteSpace=wrap;rounded=0;" vertex="1" parent="1">
          <mxGeometry x="-1820" y="480" width="60" height="30" as="geometry" />
        </mxCell>
        <mxCell id="UBW2b1I-2_OCYuIg1DvJ-19" style="edgeStyle=orthogonalEdgeStyle;rounded=0;orthogonalLoop=1;jettySize=auto;html=1;exitX=0.5;exitY=1;exitDx=0;exitDy=0;" edge="1" parent="1" source="UBW2b1I-2_OCYuIg1DvJ-17" target="UBW2b1I-2_OCYuIg1DvJ-18">
          <mxGeometry relative="1" as="geometry" />
        </mxCell>
        <mxCell id="UBW2b1I-2_OCYuIg1DvJ-17" value="each" style="rounded=1;whiteSpace=wrap;html=1;" vertex="1" parent="1">
          <mxGeometry x="-1890" y="670" width="120" height="60" as="geometry" />
        </mxCell>
        <mxCell id="UBW2b1I-2_OCYuIg1DvJ-21" style="edgeStyle=orthogonalEdgeStyle;rounded=0;orthogonalLoop=1;jettySize=auto;html=1;exitX=0;exitY=0.5;exitDx=0;exitDy=0;entryX=1;entryY=0.5;entryDx=0;entryDy=0;" edge="1" parent="1" source="UBW2b1I-2_OCYuIg1DvJ-18" target="UBW2b1I-2_OCYuIg1DvJ-20">
          <mxGeometry relative="1" as="geometry" />
        </mxCell>
        <mxCell id="UBW2b1I-2_OCYuIg1DvJ-31" style="edgeStyle=orthogonalEdgeStyle;rounded=0;orthogonalLoop=1;jettySize=auto;html=1;exitX=0.5;exitY=1;exitDx=0;exitDy=0;" edge="1" parent="1" source="UBW2b1I-2_OCYuIg1DvJ-18">
          <mxGeometry relative="1" as="geometry">
            <mxPoint x="-1830" y="920" as="targetPoint" />
          </mxGeometry>
        </mxCell>
        <mxCell id="UBW2b1I-2_OCYuIg1DvJ-18" value="if empty" style="rounded=1;whiteSpace=wrap;html=1;" vertex="1" parent="1">
          <mxGeometry x="-1890" y="790" width="120" height="60" as="geometry" />
        </mxCell>
        <mxCell id="UBW2b1I-2_OCYuIg1DvJ-22" style="edgeStyle=orthogonalEdgeStyle;rounded=0;orthogonalLoop=1;jettySize=auto;html=1;" edge="1" parent="1" source="UBW2b1I-2_OCYuIg1DvJ-20">
          <mxGeometry relative="1" as="geometry">
            <mxPoint x="-2010" y="690" as="targetPoint" />
            <Array as="points">
              <mxPoint x="-2010" y="741" />
              <mxPoint x="-2009" y="741" />
              <mxPoint x="-2009" y="690" />
            </Array>
          </mxGeometry>
        </mxCell>
        <mxCell id="UBW2b1I-2_OCYuIg1DvJ-20" value="next" style="rounded=1;whiteSpace=wrap;html=1;" vertex="1" parent="1">
          <mxGeometry x="-2070" y="790" width="120" height="50" as="geometry" />
        </mxCell>
        <mxCell id="UBW2b1I-2_OCYuIg1DvJ-25" value="" style="endArrow=classic;html=1;rounded=0;entryX=-0.008;entryY=0.374;entryDx=0;entryDy=0;entryPerimeter=0;" edge="1" parent="1" target="UBW2b1I-2_OCYuIg1DvJ-17">
          <mxGeometry width="50" height="50" relative="1" as="geometry">
            <mxPoint x="-2010" y="690" as="sourcePoint" />
            <mxPoint x="-1890" y="685" as="targetPoint" />
          </mxGeometry>
        </mxCell>
        <mxCell id="UBW2b1I-2_OCYuIg1DvJ-27" value="yes" style="text;html=1;align=center;verticalAlign=middle;resizable=0;points=[];autosize=1;strokeColor=none;fillColor=none;" vertex="1" parent="1">
          <mxGeometry x="-1950" y="788" width="40" height="30" as="geometry" />
        </mxCell>
        <mxCell id="UBW2b1I-2_OCYuIg1DvJ-34" style="edgeStyle=orthogonalEdgeStyle;rounded=0;orthogonalLoop=1;jettySize=auto;html=1;exitX=0.5;exitY=1;exitDx=0;exitDy=0;entryX=0.5;entryY=0;entryDx=0;entryDy=0;" edge="1" parent="1" source="UBW2b1I-2_OCYuIg1DvJ-28" target="UBW2b1I-2_OCYuIg1DvJ-33">
          <mxGeometry relative="1" as="geometry" />
        </mxCell>
        <mxCell id="UBW2b1I-2_OCYuIg1DvJ-28" value="set data weight, miles, name" style="rounded=1;whiteSpace=wrap;html=1;" vertex="1" parent="1">
          <mxGeometry x="-1890" y="925" width="120" height="60" as="geometry" />
        </mxCell>
        <mxCell id="UBW2b1I-2_OCYuIg1DvJ-30" style="edgeStyle=orthogonalEdgeStyle;rounded=0;orthogonalLoop=1;jettySize=auto;html=1;exitX=0.5;exitY=1;exitDx=0;exitDy=0;entryX=0.5;entryY=0;entryDx=0;entryDy=0;" edge="1" parent="1" source="UBW2b1I-2_OCYuIg1DvJ-29" target="UBW2b1I-2_OCYuIg1DvJ-17">
          <mxGeometry relative="1" as="geometry" />
        </mxCell>
        <mxCell id="UBW2b1I-2_OCYuIg1DvJ-29" value="establish weight, miles, name" style="rounded=1;whiteSpace=wrap;html=1;" vertex="1" parent="1">
          <mxGeometry x="-1890" y="530" width="120" height="60" as="geometry" />
        </mxCell>
        <mxCell id="UBW2b1I-2_OCYuIg1DvJ-32" value="no" style="text;html=1;align=center;verticalAlign=middle;resizable=0;points=[];autosize=1;strokeColor=none;fillColor=none;" vertex="1" parent="1">
          <mxGeometry x="-1810" y="868" width="40" height="30" as="geometry" />
        </mxCell>
        <mxCell id="UBW2b1I-2_OCYuIg1DvJ-36" style="edgeStyle=orthogonalEdgeStyle;rounded=0;orthogonalLoop=1;jettySize=auto;html=1;entryX=0.5;entryY=0;entryDx=0;entryDy=0;" edge="1" parent="1" source="UBW2b1I-2_OCYuIg1DvJ-33" target="UBW2b1I-2_OCYuIg1DvJ-35">
          <mxGeometry relative="1" as="geometry" />
        </mxCell>
        <mxCell id="UBW2b1I-2_OCYuIg1DvJ-33" value="new array = []" style="rounded=1;whiteSpace=wrap;html=1;" vertex="1" parent="1">
          <mxGeometry x="-1890" y="1060" width="120" height="60" as="geometry" />
        </mxCell>
        <mxCell id="UBW2b1I-2_OCYuIg1DvJ-38" style="edgeStyle=orthogonalEdgeStyle;rounded=0;orthogonalLoop=1;jettySize=auto;html=1;exitX=0.5;exitY=1;exitDx=0;exitDy=0;" edge="1" parent="1" source="UBW2b1I-2_OCYuIg1DvJ-35">
          <mxGeometry relative="1" as="geometry">
            <mxPoint x="-1829.5454545454547" y="1379.9999999999998" as="targetPoint" />
          </mxGeometry>
        </mxCell>
        <mxCell id="UBW2b1I-2_OCYuIg1DvJ-35" value="Push miles, weight, name into new array" style="rounded=1;whiteSpace=wrap;html=1;" vertex="1" parent="1">
          <mxGeometry x="-1890" y="1190" width="120" height="60" as="geometry" />
        </mxCell>
        <mxCell id="UBW2b1I-2_OCYuIg1DvJ-37" value="" style="curved=1;endArrow=classic;html=1;rounded=0;entryX=0.982;entryY=0.886;entryDx=0;entryDy=0;entryPerimeter=0;exitX=0;exitY=1;exitDx=0;exitDy=0;" edge="1" parent="1" source="UBW2b1I-2_OCYuIg1DvJ-35" target="UBW2b1I-2_OCYuIg1DvJ-35">
          <mxGeometry width="50" height="50" relative="1" as="geometry">
            <mxPoint x="-1640" y="1440" as="sourcePoint" />
            <mxPoint x="-1590" y="1390" as="targetPoint" />
            <Array as="points">
              <mxPoint x="-1860" y="1290" />
              <mxPoint x="-1730" y="1290" />
            </Array>
          </mxGeometry>
        </mxCell>
        <mxCell id="UBW2b1I-2_OCYuIg1DvJ-39" value="new array w miles, weight, name" style="rounded=1;whiteSpace=wrap;html=1;" vertex="1" parent="1">
          <mxGeometry x="-1890" y="1380" width="120" height="60" as="geometry" />
        </mxCell>
        <mxCell id="UBW2b1I-2_OCYuIg1DvJ-61" style="edgeStyle=orthogonalEdgeStyle;rounded=0;orthogonalLoop=1;jettySize=auto;html=1;entryX=0.5;entryY=0;entryDx=0;entryDy=0;" edge="1" parent="1" source="UBW2b1I-2_OCYuIg1DvJ-40" target="UBW2b1I-2_OCYuIg1DvJ-41">
          <mxGeometry relative="1" as="geometry" />
        </mxCell>
        <mxCell id="UBW2b1I-2_OCYuIg1DvJ-40" value="Users" style="rounded=1;whiteSpace=wrap;html=1;" vertex="1" parent="1">
          <mxGeometry x="-1100" y="1070" width="120" height="60" as="geometry" />
        </mxCell>
        <mxCell id="UBW2b1I-2_OCYuIg1DvJ-45" style="edgeStyle=orthogonalEdgeStyle;rounded=0;orthogonalLoop=1;jettySize=auto;html=1;entryX=0.5;entryY=0;entryDx=0;entryDy=0;" edge="1" parent="1" source="UBW2b1I-2_OCYuIg1DvJ-41" target="UBW2b1I-2_OCYuIg1DvJ-44">
          <mxGeometry relative="1" as="geometry" />
        </mxCell>
        <mxCell id="UBW2b1I-2_OCYuIg1DvJ-46" style="edgeStyle=orthogonalEdgeStyle;rounded=0;orthogonalLoop=1;jettySize=auto;html=1;entryX=0.5;entryY=0;entryDx=0;entryDy=0;" edge="1" parent="1" source="UBW2b1I-2_OCYuIg1DvJ-41" target="UBW2b1I-2_OCYuIg1DvJ-43">
          <mxGeometry relative="1" as="geometry" />
        </mxCell>
        <mxCell id="UBW2b1I-2_OCYuIg1DvJ-47" style="edgeStyle=orthogonalEdgeStyle;rounded=0;orthogonalLoop=1;jettySize=auto;html=1;entryX=0.5;entryY=0;entryDx=0;entryDy=0;" edge="1" parent="1" source="UBW2b1I-2_OCYuIg1DvJ-41" target="UBW2b1I-2_OCYuIg1DvJ-42">
          <mxGeometry relative="1" as="geometry" />
        </mxCell>
        <mxCell id="UBW2b1I-2_OCYuIg1DvJ-41" value="Selectionget" style="rounded=1;whiteSpace=wrap;html=1;" vertex="1" parent="1">
          <mxGeometry x="-1100" y="1180" width="120" height="60" as="geometry" />
        </mxCell>
        <mxCell id="UBW2b1I-2_OCYuIg1DvJ-49" style="edgeStyle=orthogonalEdgeStyle;rounded=0;orthogonalLoop=1;jettySize=auto;html=1;exitX=0.5;exitY=1;exitDx=0;exitDy=0;" edge="1" parent="1" source="UBW2b1I-2_OCYuIg1DvJ-42">
          <mxGeometry relative="1" as="geometry">
            <mxPoint x="-1180" y="1460" as="targetPoint" />
          </mxGeometry>
        </mxCell>
        <mxCell id="UBW2b1I-2_OCYuIg1DvJ-42" value="1" style="rounded=1;whiteSpace=wrap;html=1;" vertex="1" parent="1">
          <mxGeometry x="-1240" y="1340" width="120" height="60" as="geometry" />
        </mxCell>
        <mxCell id="UBW2b1I-2_OCYuIg1DvJ-43" value="2" style="rounded=1;whiteSpace=wrap;html=1;" vertex="1" parent="1">
          <mxGeometry x="-1055" y="1340" width="120" height="60" as="geometry" />
        </mxCell>
        <mxCell id="UBW2b1I-2_OCYuIg1DvJ-44" value="3" style="rounded=1;whiteSpace=wrap;html=1;" vertex="1" parent="1">
          <mxGeometry x="-850" y="1340" width="120" height="60" as="geometry" />
        </mxCell>
        <mxCell id="UBW2b1I-2_OCYuIg1DvJ-53" style="edgeStyle=orthogonalEdgeStyle;rounded=0;orthogonalLoop=1;jettySize=auto;html=1;entryX=1;entryY=0.5;entryDx=0;entryDy=0;" edge="1" parent="1" source="UBW2b1I-2_OCYuIg1DvJ-48">
          <mxGeometry relative="1" as="geometry">
            <mxPoint x="-1400" y="1640" as="targetPoint" />
          </mxGeometry>
        </mxCell>
        <mxCell id="UBW2b1I-2_OCYuIg1DvJ-54" style="edgeStyle=orthogonalEdgeStyle;rounded=0;orthogonalLoop=1;jettySize=auto;html=1;" edge="1" parent="1" source="UBW2b1I-2_OCYuIg1DvJ-48">
          <mxGeometry relative="1" as="geometry">
            <mxPoint x="-930" y="1640" as="targetPoint" />
          </mxGeometry>
        </mxCell>
        <mxCell id="UBW2b1I-2_OCYuIg1DvJ-66" style="edgeStyle=orthogonalEdgeStyle;rounded=0;orthogonalLoop=1;jettySize=auto;html=1;exitX=0.5;exitY=1;exitDx=0;exitDy=0;entryX=0.5;entryY=0;entryDx=0;entryDy=0;" edge="1" parent="1" source="UBW2b1I-2_OCYuIg1DvJ-48" target="UBW2b1I-2_OCYuIg1DvJ-64">
          <mxGeometry relative="1" as="geometry" />
        </mxCell>
        <mxCell id="UBW2b1I-2_OCYuIg1DvJ-48" value="Gym Tracker menu" style="rounded=1;whiteSpace=wrap;html=1;" vertex="1" parent="1">
          <mxGeometry x="-1240" y="1610" width="120" height="60" as="geometry" />
        </mxCell>
        <mxCell id="UBW2b1I-2_OCYuIg1DvJ-51" style="edgeStyle=orthogonalEdgeStyle;rounded=0;orthogonalLoop=1;jettySize=auto;html=1;entryX=0.5;entryY=0;entryDx=0;entryDy=0;" edge="1" parent="1" source="UBW2b1I-2_OCYuIg1DvJ-50" target="UBW2b1I-2_OCYuIg1DvJ-48">
          <mxGeometry relative="1" as="geometry" />
        </mxCell>
        <mxCell id="UBW2b1I-2_OCYuIg1DvJ-55" style="edgeStyle=orthogonalEdgeStyle;rounded=0;orthogonalLoop=1;jettySize=auto;html=1;entryX=0.5;entryY=0;entryDx=0;entryDy=0;" edge="1" parent="1" source="UBW2b1I-2_OCYuIg1DvJ-50">
          <mxGeometry relative="1" as="geometry">
            <mxPoint x="-1460" y="1610" as="targetPoint" />
          </mxGeometry>
        </mxCell>
        <mxCell id="UBW2b1I-2_OCYuIg1DvJ-57" style="edgeStyle=orthogonalEdgeStyle;rounded=0;orthogonalLoop=1;jettySize=auto;html=1;entryX=0.5;entryY=0;entryDx=0;entryDy=0;" edge="1" parent="1" source="UBW2b1I-2_OCYuIg1DvJ-50" target="UBW2b1I-2_OCYuIg1DvJ-56">
          <mxGeometry relative="1" as="geometry" />
        </mxCell>
        <mxCell id="UBW2b1I-2_OCYuIg1DvJ-50" value="SQL" style="rounded=1;whiteSpace=wrap;html=1;" vertex="1" parent="1">
          <mxGeometry x="-1240" y="1460" width="120" height="60" as="geometry" />
        </mxCell>
        <mxCell id="UBW2b1I-2_OCYuIg1DvJ-67" style="edgeStyle=orthogonalEdgeStyle;rounded=0;orthogonalLoop=1;jettySize=auto;html=1;" edge="1" parent="1" source="UBW2b1I-2_OCYuIg1DvJ-52">
          <mxGeometry relative="1" as="geometry">
            <mxPoint x="-1460" y="1760" as="targetPoint" />
          </mxGeometry>
        </mxCell>
        <mxCell id="UBW2b1I-2_OCYuIg1DvJ-52" value="Chart" style="rounded=1;whiteSpace=wrap;html=1;" vertex="1" parent="1">
          <mxGeometry x="-1520" y="1610" width="120" height="60" as="geometry" />
        </mxCell>
        <mxCell id="UBW2b1I-2_OCYuIg1DvJ-65" style="edgeStyle=orthogonalEdgeStyle;rounded=0;orthogonalLoop=1;jettySize=auto;html=1;exitX=0.5;exitY=1;exitDx=0;exitDy=0;entryX=1;entryY=0.5;entryDx=0;entryDy=0;" edge="1" parent="1" source="UBW2b1I-2_OCYuIg1DvJ-56" target="UBW2b1I-2_OCYuIg1DvJ-64">
          <mxGeometry relative="1" as="geometry" />
        </mxCell>
        <mxCell id="UBW2b1I-2_OCYuIg1DvJ-56" value="Rank" style="rounded=1;whiteSpace=wrap;html=1;" vertex="1" parent="1">
          <mxGeometry x="-930" y="1610" width="120" height="60" as="geometry" />
        </mxCell>
        <mxCell id="UBW2b1I-2_OCYuIg1DvJ-59" value="Same as 1" style="text;html=1;strokeColor=none;fillColor=none;align=center;verticalAlign=middle;whiteSpace=wrap;rounded=0;" vertex="1" parent="1">
          <mxGeometry x="-990" y="1411" width="60" height="30" as="geometry" />
        </mxCell>
        <mxCell id="UBW2b1I-2_OCYuIg1DvJ-60" value="Same as 1" style="text;html=1;strokeColor=none;fillColor=none;align=center;verticalAlign=middle;whiteSpace=wrap;rounded=0;" vertex="1" parent="1">
          <mxGeometry x="-780" y="1410" width="60" height="30" as="geometry" />
        </mxCell>
        <mxCell id="UBW2b1I-2_OCYuIg1DvJ-63" style="edgeStyle=orthogonalEdgeStyle;rounded=0;orthogonalLoop=1;jettySize=auto;html=1;entryX=0.5;entryY=0;entryDx=0;entryDy=0;" edge="1" parent="1" source="UBW2b1I-2_OCYuIg1DvJ-62" target="UBW2b1I-2_OCYuIg1DvJ-40">
          <mxGeometry relative="1" as="geometry" />
        </mxCell>
        <mxCell id="UBW2b1I-2_OCYuIg1DvJ-62" value="start" style="rounded=1;whiteSpace=wrap;html=1;" vertex="1" parent="1">
          <mxGeometry x="-1100" y="950" width="120" height="60" as="geometry" />
        </mxCell>
        <mxCell id="UBW2b1I-2_OCYuIg1DvJ-64" value="end" style="rounded=1;whiteSpace=wrap;html=1;" vertex="1" parent="1">
          <mxGeometry x="-1230" y="1730" width="120" height="60" as="geometry" />
        </mxCell>
        <mxCell id="UBW2b1I-2_OCYuIg1DvJ-68" value="" style="endArrow=classic;html=1;rounded=0;entryX=0;entryY=0.5;entryDx=0;entryDy=0;" edge="1" parent="1" target="UBW2b1I-2_OCYuIg1DvJ-64">
          <mxGeometry width="50" height="50" relative="1" as="geometry">
            <mxPoint x="-1460" y="1760" as="sourcePoint" />
            <mxPoint x="-1410" y="1750" as="targetPoint" />
          </mxGeometry>
        </mxCell>
      </root>
    </mxGraphModel>
  </diagram>
</mxfile>
